{
	"accessors" : 
	[
		{
			"bufferView" : 2,
			"byteOffset" : 0,
			"componentType" : 5126,
			"count" : 17400,
			"max" : 
			[
				1,
				1,
				1,
				1
			],
			"min" : 
			[
				5.692175545846112e-05,
				0.006584956776350737,
				0.006584956776350737,
				1
			],
			"name" : "accessor_color_m0-PolyPaper18_-58054",
			"type" : "VEC4"
		},
		{
			"bufferView" : 2,
			"byteOffset" : 278400,
			"componentType" : 5126,
			"count" : 126,
			"max" : 
			[
				1,
				1,
				1,
				1
			],
			"min" : 
			[
				1,
				1,
				1,
				1
			],
			"name" : "accessor_color_m1-PolyGlass24_-58060",
			"type" : "VEC4"
		},
		{
			"bufferView" : 0,
			"byteOffset" : 0,
			"componentType" : 5123,
			"count" : 27000,
			"max" : 
			[
				17399
			],
			"min" : 
			[
				0
			],
			"name" : "accessor_indices_0_m0-PolyPaper18_-58054",
			"type" : "SCALAR"
		},
		{
			"bufferView" : 0,
			"byteOffset" : 54000,
			"componentType" : 5123,
			"count" : 234,
			"max" : 
			[
				125
			],
			"min" : 
			[
				0
			],
			"name" : "accessor_indices_0_m1-PolyGlass24_-58060",
			"type" : "SCALAR"
		},
		{
			"bufferView" : 1,
			"byteOffset" : 208800,
			"componentType" : 5126,
			"count" : 17400,
			"max" : 
			[
				0.9959782,
				0.9995231999999999,
				0.9999686
			],
			"min" : 
			[
				-0.9998839,
				-0.9999489,
				-0.9998984
			],
			"name" : "accessor_normal_m0-PolyPaper18_-58054",
			"type" : "VEC3"
		},
		{
			"bufferView" : 1,
			"byteOffset" : 419112,
			"componentType" : 5126,
			"count" : 126,
			"max" : 
			[
				0.9214751,
				0.9965198,
				0.8564093
			],
			"min" : 
			[
				-0.8597983,
				-0.9965199,
				-0.8564122
			],
			"name" : "accessor_normal_m1-PolyGlass24_-58060",
			"type" : "VEC3"
		},
		{
			"bufferView" : 1,
			"byteOffset" : 0,
			"componentType" : 5126,
			"count" : 17400,
			"max" : 
			[
				0.7378875,
				2.397172,
				0.005378307
			],
			"min" : 
			[
				0.1171425,
				1.303333,
				-0.8164981
			],
			"name" : "accessor_position_m0-PolyPaper18_-58054",
			"type" : "VEC3"
		},
		{
			"bufferView" : 1,
			"byteOffset" : 417600,
			"componentType" : 5126,
			"count" : 126,
			"max" : 
			[
				0.7033204,
				2.177746,
				-0.07026462
			],
			"min" : 
			[
				0.5453937,
				2.052909,
				-0.3064861
			],
			"name" : "accessor_position_m1-PolyGlass24_-58060",
			"type" : "VEC3"
		}
	],
	"asset" : 
	{
		"copyright" : "Unknown",
		"generator" : "glTF 1-to-2 Upgrader for Google Blocks",
		"version" : "2.0"
	},
	"bufferViews" : 
	[
		{
			"buffer" : 0,
			"byteLength" : 54468,
			"byteOffset" : 0,
			"name" : "ushortBufferView",
			"target" : 34963
		},
		{
			"buffer" : 0,
			"byteLength" : 420624,
			"byteOffset" : 54468,
			"byteStride" : 12,
			"name" : "vec3BufferView",
			"target" : 34962
		},
		{
			"buffer" : 0,
			"byteLength" : 280416,
			"byteOffset" : 475092,
			"byteStride" : 16,
			"name" : "vec4BufferView",
			"target" : 34962
		}
	],
	"buffers" : 
	[
		{
			"byteLength" : 755508,
			"name" : "model",
			"uri" : "model.bin"
		}
	],
	"materials" : 
	[
		{
			"alphaMode" : "OPAQUE",
			"doubleSided" : false,
			"name" : "BlocksPaper",
			"pbrMetallicRoughness" : 
			{
				"baseColorFactor" : 
				[
					1,
					1,
					1,
					1
				],
				"metallicFactor" : 0,
				"roughnessFactor" : 0.6
			}
		},
		{
			"alphaMode" : "BLEND",
			"doubleSided" : false,
			"name" : "BlocksGlass",
			"pbrMetallicRoughness" : 
			{
				"baseColorFactor" : 
				[
					0.2,
					0.2,
					1,
					0.3
				],
				"metallicFactor" : 1,
				"roughnessFactor" : 0.4
			}
		},
		{
			"alphaMode" : "OPAQUE",
			"doubleSided" : true,
			"name" : "BlocksGem",
			"pbrMetallicRoughness" : 
			{
				"baseColorFactor" : 
				[
					1,
					0.4,
					1,
					1
				],
				"metallicFactor" : 0,
				"roughnessFactor" : 0.1
			}
		}
	],
	"meshes" : 
	[
		{
			"name" : "mesh_m0-PolyPaper18_-58054",
			"primitives" : 
			[
				{
					"attributes" : 
					{
						"COLOR_0" : 0,
						"NORMAL" : 4,
						"POSITION" : 6
					},
					"indices" : 2,
					"material" : 0,
					"mode" : 4
				}
			]
		},
		{
			"name" : "mesh_m1-PolyGlass24_-58060",
			"primitives" : 
			[
				{
					"attributes" : 
					{
						"COLOR_0" : 1,
						"NORMAL" : 5,
						"POSITION" : 7
					},
					"indices" : 3,
					"material" : 1,
					"mode" : 4
				}
			]
		}
	],
	"nodes" : 
	[
		{
			"matrix" : 
			[
				1,
				0,
				0,
				0,
				0,
				1,
				0,
				0,
				0,
				0,
				1,
				0,
				0,
				0,
				0,
				1
			],
			"mesh" : 0,
			"name" : "node_MeshObject208980992-PolyPaper18"
		},
		{
			"matrix" : 
			[
				1,
				0,
				0,
				0,
				0,
				1,
				0,
				0,
				0,
				0,
				1,
				0,
				0,
				0,
				0,
				1
			],
			"mesh" : 1,
			"name" : "node_MeshObject781060096-PolyGlass24"
		}
	],
	"scene" : 0,
	"scenes" : 
	[
		{
			"extras" : {},
			"name" : "defaultScene",
			"nodes" : 
			[
				0,
				1
			]
		}
	]
}